#N canvas 752 144 844 704 12;
#N canvas 0 23 450 278 (subpatch) 0;
#X array cp 12850 float 2;
#X coords 0 1 12850 -1 200 140 1 0 0;
#X restore 20 425 graph;
#X obj 22 337 soundfiler;
#X floatatom 22 370 0 0 0 0 - - -;
#X obj 99 371 print;
#X obj 646 134 select 0 1 2 3 4 5 6 7;
#X obj 319 339 spigot;
#X obj 375 338 spigot;
#X obj 436 337 spigot;
#X obj 491 334 spigot;
#X obj 545 333 spigot;
#X obj 600 330 spigot;
#X obj 650 330 spigot;
#X obj 700 329 spigot;
#X obj 386 107 tgl 23 0 empty empty empty 17 7 0 10 -262130 -1 -1 0
1;
#X obj 22 263 loadbang;
#X obj 644 80 r step;
#X floatatom 680 103 5 0 0 0 - - -;
#X obj 356 107 tgl 23 0 empty empty empty 17 7 0 10 -262130 -1 -1 0
1;
#X obj 326 106 tgl 23 0 empty empty empty 17 7 0 10 -262130 -1 -1 0
1;
#X obj 296 107 tgl 23 0 empty empty empty 17 7 0 10 -262130 -1 -1 0
1;
#X obj 266 107 tgl 23 0 empty empty empty 17 7 0 10 -262130 -1 -1 0
1;
#X obj 235 107 tgl 23 0 empty empty empty 17 7 0 10 -262130 -1 -1 0
1;
#X obj 206 107 tgl 23 0 empty empty empty 17 7 0 10 -262130 -1 -1 0
1;
#X obj 176 107 tgl 23 0 empty empty empty 17 7 0 10 -262130 -1 -1 0
1;
#X obj 438 508 tabplay~ cp;
#X obj 438 531 throw~ cp_vol;
#X msg 22 301 read -resize ../909-samples/cp03.wav cp;
#X connect 1 0 2 0;
#X connect 1 1 3 0;
#X connect 4 0 5 0;
#X connect 4 1 6 0;
#X connect 4 2 7 0;
#X connect 4 3 8 0;
#X connect 4 4 9 0;
#X connect 4 5 10 0;
#X connect 4 6 11 0;
#X connect 4 7 12 0;
#X connect 5 0 24 0;
#X connect 6 0 24 0;
#X connect 7 0 24 0;
#X connect 8 0 24 0;
#X connect 9 0 24 0;
#X connect 10 0 24 0;
#X connect 11 0 24 0;
#X connect 12 0 24 0;
#X connect 13 0 12 1;
#X connect 14 0 26 0;
#X connect 15 0 4 0;
#X connect 15 0 16 0;
#X connect 17 0 11 1;
#X connect 18 0 10 1;
#X connect 19 0 9 1;
#X connect 20 0 8 1;
#X connect 21 0 7 1;
#X connect 22 0 6 1;
#X connect 23 0 5 1;
#X connect 24 0 25 0;
#X connect 26 0 1 0;
#X coords 0 -1 1 1 320 35 1 100 100;
