#N canvas 678 259 827 451 12;
#X floatatom 346 153 5 0 0 0 - - -;
#X obj 312 242 vline~;
#X obj 310 118 dbtorms;
#X msg 312 196 \$1 200;
#X obj 222 262 *~;
#X obj 221 148 inlet~;
#X obj 222 296 outlet~;
#X obj 102 112 vsl 15 128 0 100 0 0 empty empty empty 0 -9 0 10 -262144
-1 -1 0 1;
#X obj 310 58 loadbang 80;
#X connect 1 0 4 1;
#X connect 2 0 0 0;
#X connect 2 0 3 0;
#X connect 3 0 1 0;
#X connect 4 0 6 0;
#X connect 5 0 4 0;
#X connect 7 0 2 0;
#X connect 8 0 7 0;
#X coords 0 -1 1 1 20 150 2 100 100;
