#N canvas 123 83 1311 713 12;
#X obj 125 127 gain;
#X obj 576 606 *~;
#X obj 575 638 dac~;
#X obj 1048 114 gain;
#X obj 1200 29 sig~ 1;
#X obj 348 139 gain;
#X obj 120 307 pan;
#X obj 625 604 *~;
#X obj 347 308 pan;
#X obj 34 38 catch~ bd_vol;
#X obj 348 43 catch~ sd_vol;
#X obj 573 148 gain;
#X obj 571 37 catch~ cp_vol;
#X obj 572 315 pan;
#X obj 787 147 gain;
#X obj 776 311 pan;
#X obj 785 36 catch~ cr_vol;
#X connect 0 0 6 0;
#X connect 1 0 2 0;
#X connect 3 0 1 1;
#X connect 3 0 7 1;
#X connect 4 0 3 0;
#X connect 5 0 8 0;
#X connect 6 0 1 0;
#X connect 6 1 7 0;
#X connect 7 0 2 1;
#X connect 8 0 1 0;
#X connect 8 1 7 0;
#X connect 9 0 0 0;
#X connect 10 0 5 0;
#X connect 11 0 13 0;
#X connect 12 0 11 0;
#X connect 13 0 1 0;
#X connect 13 1 7 0;
#X connect 14 0 15 0;
#X connect 15 0 1 0;
#X connect 15 1 7 0;
#X connect 16 0 14 0;
#X coords 0 -1 1 1 1000 300 1 100 100;
