#N canvas 520 200 737 443 12;
#X obj 105 105 hsl 50 20 0 1 0 0 empty empty empty -2 -8 0 10 -262144
-1 -1 1900 1;
#X obj 63 50 inlet~;
#X obj 33 278 *~;
#X obj 32 335 outlet~;
#X obj 133 358 outlet~;
#X obj 122 311 *~;
#X obj 118 146 t b f;
#X obj 121 207 -;
#X msg 118 172 1;
#X msg 127 235 \$1 60;
#X obj 127 258 vline~;
#X msg 55 220 \$1 60;
#X obj 55 243 vline~;
#X connect 0 0 6 0;
#X connect 0 0 11 0;
#X connect 1 0 2 0;
#X connect 1 0 5 0;
#X connect 2 0 3 0;
#X connect 5 0 4 0;
#X connect 6 0 8 0;
#X connect 6 1 7 1;
#X connect 7 0 9 0;
#X connect 8 0 7 0;
#X connect 9 0 10 0;
#X connect 10 0 5 1;
#X connect 11 0 12 0;
#X connect 12 0 2 1;
#X coords 0 -1 1 1 60 30 1 100 100;
