#N canvas 221 113 1336 747 12;
#X declare -path ./abstraction;
#X obj 192 89 tgl 23 0 seq_bang empty Start/Stop -90 12 0 13 -191407
-1 -1 0 1;
#X obj 141 442 mixer;
#X obj 1062 33 declare -path ./abstraction;
#X obj 490 137 bpm_to_s;
#X obj 230 72 sequencer;
#X obj 147 309 lt;
#X obj 148 385 ht;
#X obj 147 238 oh;
#X obj 147 274 hh;
#X obj 148 345 mt;
#X text 188 465 bd;
#X text 267 466 sn;
#X text 343 465 cp;
#X text 425 456 oh;
#X text 502 456 hh;
#X text 579 457 lt;
#X text 649 455 mt;
#X text 715 457 ht;
#X text 834 457 Master Volume;
#X obj 147 201 cp;
#X obj 147 128 bd;
#X obj 147 164 sn;
#X text 987 67 Declare the path were the abstractions are.;
