#N canvas 22 93 1658 873 12;
#N canvas 0 23 450 278 (subpatch) 0;
#X array \$0-instrument 8256 float 2;
#X coords 0 1 8256 -1 200 140 1 0 0;
#X restore 18 703 graph;
#X obj 20 615 soundfiler;
#X floatatom 20 648 0 0 0 0 - - -;
#X obj 97 649 print;
#X obj 803 99 select 0 1 2 3 4 5 6 7;
#X obj 778 353 spigot;
#X obj 847 351 spigot;
#X obj 908 350 spigot;
#X obj 971 349 spigot;
#X obj 1037 349 spigot;
#X obj 1106 349 spigot;
#X obj 1178 348 spigot;
#X obj 1240 347 spigot;
#X obj 376 116 tgl 23 0 empty empty empty 17 7 0 10 -204800 -1 -1 0
1;
#X obj 801 45 r step;
#X floatatom 837 68 5 0 0 0 - - -;
#X obj 346 116 tgl 23 0 empty empty empty 17 7 0 10 -204800 -1 -1 0
1;
#X obj 316 116 tgl 23 0 empty empty empty 17 7 0 10 -204800 -1 -1 0
1;
#X obj 286 116 tgl 23 0 empty empty empty 17 7 0 10 -204800 -1 -1 0
1;
#X obj 256 116 tgl 23 0 empty empty empty 17 7 0 10 -204800 -1 -1 0
1;
#X obj 225 116 tgl 23 0 empty empty empty 17 7 0 10 -204800 -1 -1 0
1;
#X obj 196 116 tgl 23 0 empty empty empty 17 7 0 10 -204800 -1 -1 0
1;
#X obj 166 116 tgl 23 0 empty empty empty 17 7 0 10 -204800 -1 -1 0
1;
#X obj 21 23 loadbang;
#X floatatom 119 117 5 1 4 0 - - -;
#X obj 734 624 tabplay~ \$0-instrument;
#X obj 505 116 gain;
#X obj 430 113 pan;
#X obj 100 542 print;
#X obj 18 512 pack s f;
#X msg 21 569 read -resize \$1 \$2-instrument;
#X obj 94 476 f \$0;
#X obj 96 511 print;
#X obj 18 449 t s b;
#X msg 22 340 symbol ../909-samples/bd01.wav;
#X msg 37 368 symbol ../909-samples/hh01.wav;
#X obj 23 311 select 1 2 3 4;
#X msg 51 394 symbol ../909-samples/sd03.wav;
#X msg 75 420 symbol ../909-samples/mt04.wav;
#X obj 479 356 throw~ CL2;
#X obj 371 357 throw~ CL1;
#X connect 1 0 2 0;
#X connect 1 1 3 0;
#X connect 4 0 5 0;
#X connect 4 1 6 0;
#X connect 4 2 7 0;
#X connect 4 3 8 0;
#X connect 4 4 9 0;
#X connect 4 5 10 0;
#X connect 4 6 11 0;
#X connect 4 7 12 0;
#X connect 5 0 25 0;
#X connect 6 0 25 0;
#X connect 7 0 25 0;
#X connect 8 0 25 0;
#X connect 9 0 25 0;
#X connect 10 0 25 0;
#X connect 11 0 25 0;
#X connect 12 0 25 0;
#X connect 13 0 12 1;
#X connect 14 0 4 0;
#X connect 14 0 15 0;
#X connect 16 0 11 1;
#X connect 17 0 10 1;
#X connect 18 0 9 1;
#X connect 19 0 8 1;
#X connect 20 0 7 1;
#X connect 21 0 6 1;
#X connect 22 0 5 1;
#X connect 23 0 24 0;
#X connect 24 0 36 0;
#X connect 25 0 26 0;
#X connect 26 0 27 0;
#X connect 27 0 40 0;
#X connect 27 1 39 0;
#X connect 29 0 30 0;
#X connect 29 0 28 0;
#X connect 30 0 1 0;
#X connect 31 0 29 1;
#X connect 31 0 32 0;
#X connect 33 0 29 0;
#X connect 33 1 31 0;
#X connect 34 0 33 0;
#X connect 35 0 33 0;
#X connect 36 0 34 0;
#X connect 36 1 35 0;
#X connect 36 2 37 0;
#X connect 36 3 38 0;
#X connect 37 0 33 0;
#X connect 38 0 33 0;
#X coords 20 -1 50 1 600 50 2 100 100;
