#N canvas 123 83 485 400 12;
#X obj 135 229 *~;
#X obj 180 320 dac~;
#X obj 99 68 sig~ 1;
#X obj 307 228 *~;
#X obj 100 107 gain;
#X obj 56 188 catch~ CL1;
#X obj 165 195 catch~ CL2;
#X connect 0 0 1 0;
#X connect 2 0 4 0;
#X connect 3 0 1 1;
#X connect 4 0 0 1;
#X connect 4 0 3 1;
#X connect 5 0 0 0;
#X connect 6 0 3 0;
#X coords 0 -1 1 1 150 30 2 100 100;
