#N canvas 250 224 905 514 12;
#X obj 105 104 hsl 35 20 0 1 0 0 empty empty empty -2 -8 0 10 -257985
-1 -1 1700 1;
#X obj 202 18 inlet~;
#X obj 107 362 *~;
#X obj 254 357 *~;
#X obj 62 147 t b f;
#X obj 63 219 -;
#X msg 62 173 1;
#X msg 267 260 \$1 60;
#X obj 269 304 vline~;
#X msg 64 265 \$1 60;
#X obj 64 288 vline~;
#X floatatom 114 259 5 0 0 0 - - -;
#X obj 107 385 outlet~;
#X obj 254 380 outlet~;
#X obj 102 45 loadbang;
#X msg 102 68 0.5;
#X connect 0 0 4 0;
#X connect 0 0 7 0;
#X connect 1 0 2 0;
#X connect 1 0 3 0;
#X connect 2 0 12 0;
#X connect 3 0 13 0;
#X connect 4 0 6 0;
#X connect 4 1 5 1;
#X connect 5 0 11 0;
#X connect 5 0 9 0;
#X connect 6 0 5 0;
#X connect 7 0 8 0;
#X connect 8 0 3 1;
#X connect 9 0 10 0;
#X connect 10 0 2 1;
#X connect 14 0 15 0;
#X connect 15 0 0 0;
#X coords 0 -1 1 1 45 28 1 100 100;
