#N canvas 221 113 1336 747 12;
#X declare -path ./abstraction;
#X floatatom 824 98 5 0 0 0 - - -;
#X obj 103 31 tgl 23 0 seq_bang empty Start/Stop -90 12 0 13 -191407
-1 -1 0 1;
#X obj 35 395 mixer;
#X obj 970 27 declare -path ./abstraction;
#X obj 616 32 bpm_to_s;
#X obj 513 122 sequencer;
#X obj 168 31 bass_drum;
#X obj 167 71 snare;
#X obj 167 110 cp;
#X obj 166 239 lt;
#X obj 165 325 ht;
#X obj 167 149 oh;
#X obj 166 192 hh;
#X obj 166 280 mt;
#X text 90 401 bd;
#X text 167 401 sn;
#X text 242 401 cp;
#X text 320 399 oh;
#X text 400 401 hh;
#X text 478 401 lt;
#X text 545 398 mt;
#X text 618 399 ht;
#X text 762 401 Master Volume;
#X connect 4 0 0 0;
