#N canvas 138 90 1316 868 12;
#X declare -path ./abstraction;
#X obj 999 52 declare -path ./abstraction;
#X obj 126 117 sequencer;
#X text 403 75 Object sequencer with 8 steps;
#X text 181 73 Start and stop button;
#X text 766 181 This object (bpm_to_ms) converts the bpm to ms.;
#X obj 117 229 instrument;
#X obj 117 293 instrument;
#X obj 114 426 instrument;
#X obj 114 358 instrument;
#X obj 510 192 mixer;
#X text 528 164 Master Volume;
#X coords 0 -1 1 1 650 450 2 100 100;
