#N canvas 78 34 1341 890 12;
#X obj 369 792 *~;
#X obj 367 854 dac~;
#X obj 804 399 vsl 15 128 0 100 0 0 empty empty Amplitude 0 -9 0 10
-228856 -1 -1 0 1;
#X floatatom 840 539 5 0 0 0 - - -;
#X floatatom 840 621 5 0 0 0 - - -;
#X obj 803 768 vline~;
#X obj 371 60 hsl 128 15 21 108 0 0 empty empty Pitch -2 -8 0 10 -228856
-1 -1 0 1;
#X floatatom 384 91 5 0 0 0 - - -;
#X obj 367 736 osc~;
#X obj 365 680 mtof~;
#X obj 663 190 osc~;
#X obj 665 385 *~;
#X obj 366 506 +~;
#X obj 705 225 vsl 15 128 0 2 0 0 empty empty Vibrato_amplitude 0 -9
0 10 -262130 -1 -1 0 1;
#X obj 476 145 hsl 128 15 0 10 0 0 empty empty Vibrato_frequency -2
-8 0 10 -262130 -1 -1 0 1;
#X obj 476 440 *~;
#X text 859 442 Amplitude of the theremin (usually left hand);
#X text 578 107 Vibrato control.;
#X text 527 66 Pitch of the theremin (usually right hand);
#X obj 804 586 dbtorms;
#X msg 805 699 \$1 200;
#X text 13 115 The pitch is limited between 21 and 108 \, which are
the range of MIDI keyboard. The value of the pitch is going to be modulated
from the vibrato. It is easier to modulate the frequency before the
mtof object \, especially because the semitone are fixed related to
the pitch as MIDI. If it would have done afterwards \, for every single
frequency it should have been calculated the interval of the -+ semitone.
;
#X text 818 157 Vibrato: the vibrato is a modulation of the frequency.
This is done applying an oscillator to the current value of the pitch.
Doing it before the mtof object \, allow to keep the range fixed and
valid for all the note \, otherwise it would have been necessary to
reconsider the distance between tone every time. The frequency vary
between 0 ansd 10 Hz and the amplitude 2 semitone. Those values have
been selected for the results thye give to us.;
#X connect 0 0 1 0;
#X connect 0 0 1 1;
#X connect 2 0 3 0;
#X connect 2 0 19 0;
#X connect 5 0 0 1;
#X connect 6 0 7 0;
#X connect 6 0 12 0;
#X connect 8 0 0 0;
#X connect 9 0 8 0;
#X connect 10 0 11 0;
#X connect 11 0 15 1;
#X connect 12 0 9 0;
#X connect 13 0 11 1;
#X connect 14 0 10 0;
#X connect 15 0 12 1;
#X connect 19 0 4 0;
#X connect 19 0 20 0;
#X connect 20 0 5 0;
