#N canvas 212 205 945 637 12;
#X obj 203 325 + 1;
#X obj 134 163 tgl 15 0 empty empty empty 17 7 0 10 -262144 -1 -1 0
1;
#X obj 131 349 mod 16;
#X obj 127 586 hradio 15 1 0 16 empty empty Step_sequencer 0 -8 0 10
-191407 -1 -66577 1;
#X floatatom 157 387 5 0 0 0 - - -;
#X obj 133 244 metro 500;
#X floatatom 257 42 5 0 0 0 Insert_bpm - -;
#X obj 258 77 t b f;
#X msg 256 107 60000;
#X floatatom 286 167 5 0 0 0 - - -;
#X text 376 584 Sequencer gui;
#X obj 256 141 /;
#X obj 253 179 / 4;
#X floatatom 275 207 5 0 0 0 - - -;
#X obj 131 326 int 1;
#X msg 50 301 0;
#X obj 50 264 bng 15 250 50 0 empty empty Reset 17 7 0 10 -262144 -1
-66577;
#X text 317 62 Bpm to seconds. This is going to convert the bmp (given
as input to the trigger) to ms;
#X text 335 152 Diving the bpm value in ms by 4 \, in order to have
the sequencer triggered every sub-beat.;
#X text 258 330 comment;
#X connect 0 0 14 1;
#X connect 1 0 5 0;
#X connect 2 0 3 0;
#X connect 2 0 4 0;
#X connect 5 0 14 0;
#X connect 6 0 7 0;
#X connect 7 0 8 0;
#X connect 7 1 11 1;
#X connect 8 0 11 0;
#X connect 11 0 9 0;
#X connect 11 0 12 0;
#X connect 12 0 13 0;
#X connect 12 0 5 1;
#X connect 14 0 0 0;
#X connect 14 0 2 0;
#X connect 15 0 14 0;
#X connect 16 0 15 0;
