#N canvas 39 142 1490 764 12;
#N canvas 0 22 450 278 (subpatch) 0;
#X array bd 8256 float 2;
#X coords 0 1 8256 -1 200 140 1 0 0;
#X restore 18 563 graph;
#X obj 20 475 soundfiler;
#X floatatom 20 508 0 0 0 0 - - -;
#X obj 97 509 print;
#X obj 674 104 select 0 1 2 3 4 5 6 7;
#X obj 490 314 spigot;
#X obj 558 308 spigot;
#X obj 619 314 spigot;
#X obj 692 317 spigot;
#X obj 758 316 spigot;
#X obj 837 315 spigot;
#X obj 910 314 spigot;
#X obj 987 313 spigot;
#X obj 384 106 tgl 23 0 empty empty empty 17 7 0 10 -204800 -1 -1 0
1;
#X obj 672 50 r step;
#X floatatom 708 73 5 0 0 0 - - -;
#X obj 354 106 tgl 23 0 empty empty empty 17 7 0 10 -204800 -1 -1 0
1;
#X obj 324 106 tgl 23 0 empty empty empty 17 7 0 10 -204800 -1 -1 0
1;
#X obj 294 106 tgl 23 0 empty empty empty 17 7 0 10 -204800 -1 -1 0
1;
#X obj 264 106 tgl 23 0 empty empty empty 17 7 0 10 -204800 -1 -1 0
1;
#X obj 233 106 tgl 23 0 empty empty empty 17 7 0 10 -204800 -1 -1 0
1;
#X obj 204 106 tgl 23 0 empty empty empty 17 7 0 10 -204800 -1 -1 0
1;
#X obj 174 106 tgl 23 0 empty empty empty 17 7 0 10 -204800 -1 -1 0
1;
#X obj 722 514 tabplay~ bd;
#X obj 722 537 throw~ bd_vol;
#X obj 15 5 loadbang;
#X obj 28 299 select 1 2 3 4;
#X msg 130 411 read -resize ../909-samples/cp04.wav cp;
#X floatatom 127 107 5 1 4 0 - - -;
#X msg 25 337 read -resize ../909-samples/bd01.wav bd;
#X msg 49 361 read -resize ../909-samples/bd02.wav bd;
#X msg 73 386 read -resize ../909-samples/bd03.wav bd;
#X msg 15 28 1;
#X connect 1 0 2 0;
#X connect 1 1 3 0;
#X connect 4 0 5 0;
#X connect 4 1 6 0;
#X connect 4 2 7 0;
#X connect 4 3 8 0;
#X connect 4 4 9 0;
#X connect 4 5 10 0;
#X connect 4 6 11 0;
#X connect 4 7 12 0;
#X connect 5 0 23 0;
#X connect 6 0 23 0;
#X connect 7 0 23 0;
#X connect 8 0 23 0;
#X connect 9 0 23 0;
#X connect 10 0 23 0;
#X connect 11 0 23 0;
#X connect 12 0 23 0;
#X connect 13 0 12 1;
#X connect 14 0 4 0;
#X connect 14 0 15 0;
#X connect 16 0 11 1;
#X connect 17 0 10 1;
#X connect 18 0 9 1;
#X connect 19 0 8 1;
#X connect 20 0 7 1;
#X connect 21 0 6 1;
#X connect 22 0 5 1;
#X connect 23 0 24 0;
#X connect 25 0 32 0;
#X connect 26 0 29 0;
#X connect 26 1 30 0;
#X connect 26 2 31 0;
#X connect 26 3 27 0;
#X connect 27 0 1 0;
#X connect 29 0 1 0;
#X connect 30 0 1 0;
#X connect 31 0 1 0;
#X connect 32 0 26 0;
#X coords 0 -1 1 1 320 35 2 100 100;
