#N canvas 268 144 1328 761 12;
#N canvas 0 23 450 278 (subpatch) 0;
#X array cp 33068 float 2;
#X coords 0 1 33068 -1 200 140 1 0 0;
#X restore 22 532 graph;
#X obj 24 444 soundfiler;
#X floatatom 24 477 0 0 0 0 - - -;
#X obj 101 478 print;
#X obj 926 132 select 0 1 2 3 4 5 6 7;
#X obj 598 299 spigot;
#X obj 660 297 spigot;
#X obj 721 296 spigot;
#X obj 776 293 spigot;
#X obj 830 292 spigot;
#X obj 885 289 spigot;
#X obj 935 289 spigot;
#X obj 985 288 spigot;
#X obj 389 107 tgl 23 0 empty empty empty 17 7 0 10 -262130 -1 -1 0
1;
#X obj 22 59 loadbang;
#X obj 924 78 r step;
#X floatatom 960 101 5 0 0 0 - - -;
#X obj 359 107 tgl 23 0 empty empty empty 17 7 0 10 -262130 -1 -1 0
1;
#X obj 329 106 tgl 23 0 empty empty empty 17 7 0 10 -262130 -1 -1 0
1;
#X obj 299 107 tgl 23 0 empty empty empty 17 7 0 10 -262130 -1 -1 0
1;
#X obj 269 107 tgl 23 0 empty empty empty 17 7 0 10 -262130 -1 -1 0
1;
#X obj 238 107 tgl 23 0 empty empty empty 17 7 0 10 -262130 -1 -1 0
1;
#X obj 209 107 tgl 23 0 empty empty empty 17 7 0 10 -262130 -1 -1 0
1;
#X obj 179 107 tgl 23 0 empty empty empty 17 7 0 10 -262130 -1 -1 0
1;
#X obj 723 467 tabplay~ cp;
#X obj 723 490 throw~ cp_vol;
#X obj 20 229 select 1 2 3 4;
#X msg 69 370 read -resize ../909-samples/cp03.wav cp;
#X msg 21 321 read -resize ../909-samples/cp01.wav cp;
#X msg 45 345 read -resize ../909-samples/cp02.wav cp;
#X msg 126 395 read -resize ../909-samples/cp04.wav cp;
#X floatatom 133 111 5 1 4 0 - - -;
#X msg 22 82 1;
#X connect 1 0 2 0;
#X connect 1 1 3 0;
#X connect 4 0 5 0;
#X connect 4 1 6 0;
#X connect 4 2 7 0;
#X connect 4 3 8 0;
#X connect 4 4 9 0;
#X connect 4 5 10 0;
#X connect 4 6 11 0;
#X connect 4 7 12 0;
#X connect 5 0 24 0;
#X connect 6 0 24 0;
#X connect 7 0 24 0;
#X connect 8 0 24 0;
#X connect 9 0 24 0;
#X connect 10 0 24 0;
#X connect 11 0 24 0;
#X connect 12 0 24 0;
#X connect 13 0 12 1;
#X connect 14 0 32 0;
#X connect 15 0 4 0;
#X connect 15 0 16 0;
#X connect 17 0 11 1;
#X connect 18 0 10 1;
#X connect 19 0 9 1;
#X connect 20 0 8 1;
#X connect 21 0 7 1;
#X connect 22 0 6 1;
#X connect 23 0 5 1;
#X connect 24 0 25 0;
#X connect 26 0 28 0;
#X connect 26 1 29 0;
#X connect 26 2 27 0;
#X connect 26 3 30 0;
#X connect 27 0 1 0;
#X connect 28 0 1 0;
#X connect 29 0 1 0;
#X connect 30 0 1 0;
#X connect 32 0 26 0;
#X coords 0 -1 1 1 320 35 2 100 100;
