#N canvas 508 228 827 591 12;
#X floatatom 135 338 5 0 0 0 - - -;
#X obj 101 427 vline~;
#X obj 99 303 dbtorms;
#X obj 11 447 *~;
#X obj 10 333 inlet~;
#X obj 11 481 outlet~;
#X obj 102 107 vsl 35 128 0 100 0 0 empty empty empty 0 -9 0 10 -99865
-1 -1 11430 1;
#X obj 103 9 loadbang;
#X msg 101 381 \$1 60;
#X msg 103 36 90;
#X text 221 30 Here is the simply volume control as we already have
seen in the previous lab. The signal coming as input is going to be
moltiply for the value of the slider. The value of the sldier is going
to be converted between 0 and 1 with the [dbtorms] object first.;
#X text 227 150 The [loadbang] to the messsage 90 assures that when
the patch is going to be instantiated \, the slider is going to be
set to the value 90 and we can hear something.;
#X connect 1 0 3 1;
#X connect 2 0 0 0;
#X connect 2 0 8 0;
#X connect 3 0 5 0;
#X connect 4 0 3 0;
#X connect 6 0 2 0;
#X connect 7 0 9 0;
#X connect 8 0 1 0;
#X connect 9 0 6 0;
#X coords 0 -1 1 1 40 150 2 100 100;
