#N canvas 341 147 1150 677 12;
#N canvas 0 23 450 278 (subpatch) 0;
#X array ht 10964 float 2;
#X coords 0 1 10964 -1 200 140 1 0 0;
#X restore 20 426 graph;
#X obj 22 337 soundfiler;
#X floatatom 22 370 0 0 0 0 - - -;
#X obj 99 371 print;
#X obj 646 134 select 0 1 2 3 4 5 6 7;
#X obj 597 306 spigot;
#X obj 653 305 spigot;
#X obj 714 304 spigot;
#X obj 769 301 spigot;
#X obj 823 300 spigot;
#X obj 878 297 spigot;
#X obj 928 297 spigot;
#X obj 978 296 spigot;
#X obj 386 107 tgl 23 0 empty empty empty 17 7 0 10 -204786 -1 -1 0
1;
#X obj 644 80 r step;
#X floatatom 680 103 5 0 0 0 - - -;
#X obj 356 107 tgl 23 0 empty empty empty 17 7 0 10 -204786 -1 -1 0
1;
#X obj 326 106 tgl 23 0 empty empty empty 17 7 0 10 -204786 -1 -1 0
1;
#X obj 296 107 tgl 23 0 empty empty empty 17 7 0 10 -204786 -1 -1 0
1;
#X obj 266 107 tgl 23 0 empty empty empty 17 7 0 10 -204786 -1 -1 0
1;
#X obj 235 107 tgl 23 0 empty empty empty 17 7 0 10 -204786 -1 -1 0
1;
#X obj 206 107 tgl 23 0 empty empty empty 17 7 0 10 -204786 -1 -1 0
1;
#X obj 176 107 tgl 23 0 empty empty empty 17 7 0 10 -204786 -1 -1 0
1;
#X obj 716 475 tabplay~ ht;
#X obj 716 498 throw~ ht_vol;
#X obj 17 11 loadbang;
#X obj 20 177 select 1 2 3 4;
#X floatatom 130 109 5 1 4 0 - - -;
#X msg 21 227 read -resize ../909-samples/ht01.wav ht;
#X msg 42 257 read -resize ../909-samples/ht02.wav ht;
#X msg 66 282 read -resize ../909-samples/ht03.wav ht;
#X msg 123 307 read -resize ../909-samples/ht04.wav ht;
#X msg 17 34 1;
#X connect 1 0 2 0;
#X connect 1 1 3 0;
#X connect 4 0 5 0;
#X connect 4 1 6 0;
#X connect 4 2 7 0;
#X connect 4 3 8 0;
#X connect 4 4 9 0;
#X connect 4 5 10 0;
#X connect 4 6 11 0;
#X connect 4 7 12 0;
#X connect 5 0 23 0;
#X connect 6 0 23 0;
#X connect 7 0 23 0;
#X connect 8 0 23 0;
#X connect 9 0 23 0;
#X connect 10 0 23 0;
#X connect 11 0 23 0;
#X connect 12 0 23 0;
#X connect 13 0 12 1;
#X connect 14 0 4 0;
#X connect 14 0 15 0;
#X connect 16 0 11 1;
#X connect 17 0 10 1;
#X connect 18 0 9 1;
#X connect 19 0 8 1;
#X connect 20 0 7 1;
#X connect 21 0 6 1;
#X connect 22 0 5 1;
#X connect 23 0 24 0;
#X connect 25 0 32 0;
#X connect 26 0 28 0;
#X connect 26 1 29 0;
#X connect 26 2 30 0;
#X connect 26 3 31 0;
#X connect 28 0 1 0;
#X connect 29 0 1 0;
#X connect 30 0 1 0;
#X connect 31 0 1 0;
#X connect 32 0 26 0;
#X coords 0 -1 1 1 320 35 2 100 100;
