#N canvas 173 97 1414 792 12;
#N canvas 0 23 450 278 (subpatch) 0;
#X array mt 16858 float 2;
#X coords 0 1 16858 -1 200 140 1 0 0;
#X restore 26 558 graph;
#X obj 28 470 soundfiler;
#X floatatom 28 503 0 0 0 0 - - -;
#X obj 105 504 print;
#X obj 646 134 select 0 1 2 3 4 5 6 7;
#X obj 635 369 spigot;
#X obj 691 368 spigot;
#X obj 752 367 spigot;
#X obj 807 364 spigot;
#X obj 861 363 spigot;
#X obj 916 360 spigot;
#X obj 966 360 spigot;
#X obj 1016 359 spigot;
#X obj 386 107 tgl 23 0 empty empty empty 17 7 0 10 -228856 -1 -1 0
1;
#X obj 644 80 r step;
#X floatatom 680 103 5 0 0 0 - - -;
#X obj 356 107 tgl 23 0 empty empty empty 17 7 0 10 -228856 -1 -1 0
1;
#X obj 326 106 tgl 23 0 empty empty empty 17 7 0 10 -228856 -1 -1 0
1;
#X obj 296 107 tgl 23 0 empty empty empty 17 7 0 10 -228856 -1 -1 0
1;
#X obj 266 107 tgl 23 0 empty empty empty 17 7 0 10 -228856 -1 -1 0
1;
#X obj 235 107 tgl 23 0 empty empty empty 17 7 0 10 -228856 -1 -1 0
1;
#X obj 206 107 tgl 23 0 empty empty empty 17 7 0 10 -228856 -1 -1 0
1;
#X obj 176 107 tgl 23 0 empty empty empty 17 7 0 10 -228856 -1 -1 0
1;
#X obj 754 538 tabplay~ mt;
#X obj 754 561 throw~ mt_vol;
#X obj 26 224 select 1 2 3 4;
#X floatatom 127 109 5 1 4 0 - - -;
#X msg 23 262 read -resize ../909-samples/mt01.wav mt;
#X msg 47 286 read -resize ../909-samples/mt02.wav mt;
#X msg 75 312 read -resize ../909-samples/mt03.wav mt;
#X msg 128 336 read -resize ../909-samples/mt04.wav mt;
#X obj 24 0 loadbang;
#X msg 24 23 1;
#X connect 1 0 2 0;
#X connect 1 1 3 0;
#X connect 4 0 5 0;
#X connect 4 1 6 0;
#X connect 4 2 7 0;
#X connect 4 3 8 0;
#X connect 4 4 9 0;
#X connect 4 5 10 0;
#X connect 4 6 11 0;
#X connect 4 7 12 0;
#X connect 5 0 23 0;
#X connect 6 0 23 0;
#X connect 7 0 23 0;
#X connect 8 0 23 0;
#X connect 9 0 23 0;
#X connect 10 0 23 0;
#X connect 11 0 23 0;
#X connect 12 0 23 0;
#X connect 13 0 12 1;
#X connect 14 0 4 0;
#X connect 14 0 15 0;
#X connect 16 0 11 1;
#X connect 17 0 10 1;
#X connect 18 0 9 1;
#X connect 19 0 8 1;
#X connect 20 0 7 1;
#X connect 21 0 6 1;
#X connect 22 0 5 1;
#X connect 23 0 24 0;
#X connect 25 0 27 0;
#X connect 25 1 28 0;
#X connect 25 2 29 0;
#X connect 25 3 30 0;
#X connect 27 0 1 0;
#X connect 28 0 1 0;
#X connect 29 0 1 0;
#X connect 30 0 1 0;
#X connect 31 0 32 0;
#X connect 32 0 25 0;
#X coords 0 -1 1 1 320 35 2 100 100;
