#N canvas 123 83 1311 713 12;
#X obj 150 129 gain;
#X obj 303 592 *~;
#X obj 471 669 dac~;
#X obj 844 127 gain;
#X obj 1066 49 sig~ 1;
#X obj 226 130 gain;
#X obj 149 289 pan;
#X obj 702 593 *~;
#X obj 225 289 pan;
#X obj 24 52 catch~ bd_vol;
#X obj 147 49 catch~ sd_vol;
#X obj 304 129 gain;
#X obj 272 49 catch~ cp_vol;
#X obj 303 289 pan;
#X obj 382 127 gain;
#X obj 382 288 pan;
#X obj 459 127 gain;
#X obj 459 287 pan;
#X obj 510 48 catch~ lt_vol;
#X obj 533 127 gain;
#X obj 532 285 pan;
#X obj 634 48 catch~ ht_vol;
#X obj 389 48 catch~ oh_vol;
#X obj 605 127 gain;
#X obj 604 286 pan;
#X obj 676 126 gain;
#X obj 676 286 pan;
#X obj 751 48 catch~ hh_vol;
#X obj 887 48 catch~ mt_vol;
#X connect 0 0 6 0;
#X connect 1 0 2 0;
#X connect 3 0 1 1;
#X connect 3 0 7 1;
#X connect 4 0 3 0;
#X connect 5 0 8 0;
#X connect 6 0 1 0;
#X connect 6 1 7 0;
#X connect 7 0 2 1;
#X connect 8 0 1 0;
#X connect 8 1 7 0;
#X connect 9 0 0 0;
#X connect 10 0 5 0;
#X connect 11 0 13 0;
#X connect 12 0 11 0;
#X connect 13 0 1 0;
#X connect 13 1 7 0;
#X connect 14 0 15 0;
#X connect 15 0 1 0;
#X connect 15 1 7 0;
#X connect 16 0 17 0;
#X connect 17 0 1 0;
#X connect 17 1 7 0;
#X connect 18 0 16 0;
#X connect 19 0 20 0;
#X connect 20 0 1 0;
#X connect 20 1 7 0;
#X connect 21 0 19 0;
#X connect 22 0 14 0;
#X connect 23 0 24 0;
#X connect 24 0 1 0;
#X connect 24 1 7 0;
#X connect 25 0 26 0;
#X connect 26 0 1 0;
#X connect 26 1 7 0;
#X connect 27 0 23 0;
#X connect 28 0 25 0;
#X coords 0 -1 1 1 1000 300 1 100 100;
